<?xml version="1.0" encoding="utf-8" standalone="yes"?>
<!DOCTYPE svg PUBLIC "-//W3C//DTD SVG 1.1//EN" "http://www.w3.org/Graphics/SVG/1.1/DTD/svg11.dtd">
<svg width="587.28pt" height="617.89pt" xmlns="http://www.w3.org/2000/svg">
<style type="svg/css">
.AE {fill:#a69973}
#AF {fill:#abb88f}
#FF {fill:#fff}
.FL {fill:#f5eee1}
#G7 {fill:#634f37}
.GB {fill:#645038}
.OO {fill:#000}
#TF {fill:#7d746f}
.TG {fill:#727d56}
.TT {fill:#737d57}
#FG {fill:url(#lg0)}
</style>
  <defs>
    <linearGradient id="lg0" x1=".569763" y1=".492184" x2=".744186" y2=".101562">
      <stop style="stop-color:#737d57"/>
      <stop style="stop-color:#abb88f" offset="1"/>
	</linearGradient>
  </defs>
  <path id="AF" d="M255.0132 164.5613L 491.3571 217.2122L 553.3681 348.2543L 658.6699 544.8177L 676.2202 588.1084L 521.7776 705.1103L 471.4668 712.1305L 375.5252 723.8307L 381.9603 700.4303L 369.6751 675.8599L 352.4985 697.6233L 335.9519 715.8245L 323.0989 717.7215L 290.4488 721.6159L 235.0178 734.8531L 213.5072 686.868L 201.9246 682.7314L 180.4141 676.9401L 164.6948 657.9115L 168.0041 639.7103L 172.9681 627.3004L 155.5942 591.7252L 145.6663 561.114L 110.9184 525.5389L 112.5731 508.9923L 116.7098 496.5824L 110.9184 485.8271L 120.8464 463.4893L 139.8749 438.6694L 133.2563 420.4681L 120.8464 413.8495L 110.9184 413.8495L 104.2998 405.5762L 100.1632 335.2532L 104.2998 322.8433L 112.5731 295.5415L 108.4365 255.0024L 100.1632 196.262"/>
  <path class="TG" d="M485.7001 535.4652C 485.1485 509.2663 482.115 481.4129 488.1821 456.8687C 493.6976 440.5978 498.3859 429.2911 512.1747 427.9121C 526.7908 431.4972 536.443 450.8016 538.6492 466.7966C 549.9561 488.583 556.2989 511.1968 558.5051 532.9832C 557.6779 553.6665 550.2319 581.7957 541.1313 615.7163L 578.3612 524.7099C 585.2557 521.9521 592.1501 516.7123 600.6992 518.0912C 610.0756 522.2279 615.3154 528.8465 619.7278 543.7385C 618.9004 552.5634 621.3824 552.2876 616.4185 561.1125C 627.1738 561.1125 639.0073 594.2315 643.9713 613.2602C 657.0667 602.4298 669.134 593.9639 676.58 587.0695L 590.3575 400.1964L 506.1764 286.2316C 499.1441 314.0851 493.9734 325.1851 485.4933 340.4218C 490.2504 354.1417 492.5256 381.3057 492.7325 387.3729C 490.1815 393.8536 488.6647 396.8182 481.3566 396.8871C 474.669 393.9224 463.0174 389.51 456.9504 382.4088L 454.2615 403.0921L 469.1534 432.0487L 470.8081 469.2787L 485.7001 535.4652L 485.7001 535.4652L 485.7001 535.4652L 485.7001 535.4652L 485.7001 535.4652L 485.7001 535.4652L 485.7001 535.4652L 485.7001 535.4652L 485.7001 535.4652L 485.7001 535.4652L 485.7001 535.4652L 485.7001 535.4652L 485.7001 535.4652L 485.7001 535.4652z"/>
  <path id="FF" d="M259.6315 378.6865L 303.6868 378.066L 284.0377 397.0946L 268.1116 409.0909L 235.8457 413.8481L 224.6767 408.4704L 245.7737 382.6164L 259.6315 378.6865L 259.6315 378.6865z"/>
  <path class="TT" d="M178.6701 210.189C 191.1504 205.899 201.5831 203.9487 215.2334 205.5088C 231.2179 209.9939 235.9038 212.5821 244.484 222.4742L 263.4968 331.5788C 259.8801 335.7409 356.3747 358.0345 353.8899 355.2008C 343.6417 345.1813 370.4007 336.7424 367.493 335.741C 356.9913 330.8439 334.3439 320.5057 327.0459 319.2586C 310.3069 318.4111 334.736 303.5696 331.7531 303.2966C 295.5791 300.0393 312.1193 293.597 307.9028 293.1509C 301.5478 293.3603 290.5359 293.8197 293.7712 290.3355C 298.6463 283.5103 316.9768 281.6578 324.6307 282.7303C 316.538 274.8326 302.3028 268.105 298.8901 261.0849C 295.965 252.5047 297.7201 244.5096 307.6653 237.0995C 317.0255 238.2696 324.0457 250.5548 330.4808 264.01C 358.9513 287.2156 366.9464 296.9656 377.2816 319.0011L 379.0367 362.877L 423.4839 403.3252L 411.9937 379.2872L 422.8415 394.5473C 415.5024 365.7871 415.8099 348.1162 417.7306 318.913C 425.5459 309.85 432.9476 302.028 443.6586 295.447C 388.0453 257.2896 337.3961 205.0676 284.2648 159.878L 109.0537 196.4412L 108.7612 254.0648C 111.4913 240.6096 113.9288 231.8344 123.6791 223.0592C 132.7468 218.0868 148.5421 220.719 161.4123 227.1541C 165.7024 219.4516 170.87 214.9665 178.6701 210.189L 178.6701 210.189L 178.6701 210.189L 178.6701 210.189L 178.6701 210.189L 178.6701 210.189L 178.6701 210.189L 178.6701 210.189L 178.6701 210.189z"/>
  <g
     transform="translate(-22.28142,-5.606096)">
    <path class="AE" d="M108.2269 337.1869L 124.8997 341.5744L 137.185 346.547L 141.5725 354.7371L 153.5653 360.5873L 160.0004 372.8725L 145.3751 407.9731L 134.9912 409.4356L 124.461 403.8781L 109.397 398.6129L 96.52673 400.953L 97.69675 395.1029L 103.8394 392.1779L 95.0642 384.719L 103.8394 378.7226L 104.7169 355.322L 108.2269 351.8121L 108.2269 337.1869L 108.2269 337.1869z"/>
    <path class="AE" d="M133.2 303.6293L 131.5453 270.5362L 134.8546 216.7598L 151.4012 211.7959L 166.2931 222.5511L 174.5664 228.3424L 182.6476 232.287L 192.7677 208.4865L 229.9975 196.0766L 263.0906 210.1412L 269.7093 232.4791L 263.0906 265.5723L 265.5726 291.2195L 276.4784 310.3025L 300.4208 312.6166L 301.7328 296.0874L 315.2124 282.1188L 304.4571 262.2629L 321.0037 236.6157L 317.6944 218.4145L 309.4211 204.3499L 323.4857 210.1412L 341.6869 236.6157L 349.9602 255.6443L 385.5354 288.7375L 397.9453 307.766L 402.0819 346.6505L 404.5639 365.6791L 431.0384 379.7436L 433.5204 321.8306L 439.3118 316.0393L 474.8869 277.9821L 501.3614 247.371L 505.4981 265.5723L 512.1167 270.5362L 512.1167 280.4641L 526.1813 288.7375L 531.9726 294.5288L 523.5071 322.4156L 512.1167 344.9958L 522.4139 379.0157L 531.1891 379.0157L 542.8893 395.981L 541.7192 381.9407L 552.8344 397.736L 561.6096 424.0614L 566.2897 450.3869L 560.4396 467.9372L 570.3848 488.4126L 579.1599 503.0378L 583.84 500.1127L 590.8601 511.8129L 598.4652 505.9628L 617.7706 478.4674L 617.7706 487.2425L 633.5658 507.1329L 645.2661 534.0433L 638.2459 564.4639L 645.2661 561.5388L 645.2661 580.2591L 656.9662 602.4895L 661.6464 592.5443L 674.5165 583.7692L 689.1418 560.3688L 689.1418 529.3633L 663.9865 463.2571L 659.8913 457.992L 654.0412 413.5313L 638.2459 346.8402L 608.4104 327.5348L 580.9149 271.3739L 565.1197 223.988L 562.1946 167.242L 523.5839 113.4211L 488.4834 76.56555L 484.3883 67.79037L 452.2127 59.01527L 422.9622 49.07005L 408.337 53.16513L 403.6569 46.14502L 368.5563 47.31506L 358.6111 49.07005L 357.4411 43.21999L 341.0608 49.07005L 313.5653 71.88545L 288.4099 88.26576L 284.3149 92.94579C 284.3149 92.94579 242.7791 98.21083 242.7791 97.04086C 242.7791 95.8709 198.9034 101.7209 198.9034 101.7209L 178.4281 115.7612L 152.1026 129.2164L 142.1574 142.6716L 102.3767 149.6917L 84.82645 166.0721L 76.0513 176.0172L 74.29626 184.7924L 78.97635 205.2677L 70.2012 231.5931L 64.3511 243.2934L 108.2269 291.8492L 118.757 310.5695L 125.7771 325.1947"/>
    <path class="AE" d="M220.0699 378.0879L 233.3072 360.3003L 239.5121 354.0954L 238.6848 347.8904L 283.3607 311.4879L 300.7346 312.7289L 310.2489 300.3189L 319.3495 301.1462L 319.3495 304.4555L 321.4178 306.5239L 329.6912 305.6965L 342.1011 312.7289L 331.7595 323.0704L 343.4381 329.2754L 357.4067 328.4481L 368.162 334.3606L 377.2626 337.5487L 382.2266 341.6854L 364.8527 350.786L 298.6663 368.5737L 261.4364 390.0842L 242.8215 405.8035L 234.569 408.603L 224.9378 408.4067L 218.0016 403.7352L 216.7605 383.0519L 220.0699 378.0879L 220.0699 378.0879z"/>
  </g>
  <path id="FG" d="M463.863 288.5811L 490.1885 302.6214L 474.5291 357.0276L 465.4822 369.3128L 452.7479 364.0476L 441.0476 342.4022L 437.3662 341.5455"/>
  <path class="TG" d="M460.8801 438.6674L 477.4268 500.7173L 491.4914 626.4717C 480.4603 622.335 472.7386 621.5076 460.0528 622.335C 440.1968 630.6083 415.3769 649.6369 397.1756 678.5935C 388.6266 692.9339 383.3867 707.2744 375.665 721.6148L 381.4563 696.7948L 367.3917 674.4569L 423.6502 611.5797L 458.3981 583.4504L 469.1534 556.1485L 469.1534 502.3719L 460.0528 477.552L 460.8801 438.6674L 460.8801 438.6674L 460.8801 438.6674L 460.8801 438.6674z"/>
  <path class="TT" d="M203.9938 414.3969L 196.9908 415.5729C 199.3782 421.2697 198.5272 422.558 198.5745 427.0847C 198.7083 437.9542 197.087 445.8987 191.9557 459.6933L 215.6646 437.2966L 262.5901 454.0541C 246.174 445.1855 229.3442 437.1441 219.5468 428.2755C 217.715 424.0985 216.7106 417.4394 219.0154 411.194L 214.3354 410.0534L 203.9938 414.3969L 203.9938 414.3969z"/>
  <path class="TT" d="M114.0263 523.1703C 119.8764 527.4604 124.5565 531.1654 131.5766 534.2855C 138.2067 534.2855 142.4969 533.7005 147.957 531.9455L 147.957 557.101L 121.6314 542.4758L 114.0263 523.1703L 114.0263 523.1703L 114.0263 523.1703L 114.0263 523.1703z"/>
  <path class="TT" d="M377.3202 580.1404L 374.4246 621.5069L 355.8095 631.8487L 292.5186 675.6974L 234.6053 691.8303L 226.332 698.0353L 210.6127 683.9707L 192.4113 681.4887L 169.246 664.942L 165.1094 651.7047C 184.4138 681.7643 201.65 682.8675 254.0476 677.352C 282.8663 674.0426 299.6888 667.424 325.6119 642.6041C 340.0902 627.9879 352.5002 617.5082 362.8419 598.7554C 366.427 584.5529 362.5661 582.3467 353.3275 585.5181C 355.4529 568.2974 337.7974 527.9107 342.6654 532.9786C 359.0732 551.2782 352.5471 525.1553 333.9047 502.6695C 351.8629 513.2511 358.706 531.4378 377.8342 570.6849L 377.3202 580.1404L 377.3202 580.1404L 377.3202 580.1404L 377.3202 580.1404L 377.3202 580.1404L 377.3202 580.1404L 377.3202 580.1404L 377.3202 580.1404L 377.3202 580.1404L 377.3202 580.1404z"/>
  <path class="TT" d="M312.6369 374.8716C 304.322 365.325 308.4171 356.6057 324.9222 351.1958L 283.6789 361.7089L 257.3535 373.4091L 238.6331 385.2556L 261.5948 378.8204L 303.5693 377.9429L 312.6369 374.8716L 312.6369 374.8716L 312.6369 374.8716L 312.6369 374.8716z"/>
  <g
     transform="translate(-22.28142,-5.606096)">
    <path class="FL" d="M173.7395 584.9202L 195.2501 634.5601L 189.8724 638.2831L 171.6712 609.7402L 173.7395 584.9202z"/>
    <path class="FL" d="M344.997 531.1437L 362.7846 539.417L 380.9859 572.5103L 379.3312 584.9202L 371.8852 593.1936L 361.5436 595.2619L 349.1336 587.8159L 341.6877 543.14L 344.997 531.1437z"/>
  </g>
  <path class="TT" d="M146.4942 272.4942C 174.1847 267.5216 170.6417 268.8572 185.0719 260.1795C 164.499 267.297 165.0195 265.084 142.9841 268.1065C 132.9414 269.3741 134.5903 270.0566 122.2076 270.1541C 129.6178 272.3966 132.9414 273.5667 146.4942 272.4942L 146.4942 272.4942L 146.4942 272.4942z"/>
  <path class="TT" d="M134.8025 301.1596C 147.3803 306.6612 155.5203 305.6153 174.5747 296.772C 190.37 287.6068 200.052 278.9766 216.4323 266.5938L 185.6899 297.9421C 178.0848 302.3297 166.5143 305.4762 154.2083 307.6241C 141.4356 308.5018 143.7642 309.329 133.624 306.989L 110.8085 296.772L 134.8025 301.1596L 134.8025 301.1596z"/>
  <path class="TT" d="M141.1164 441.9771C 144.9773 432.6007 152.1475 426.5335 166.7637 419.2255L 136.9797 426.2578L 141.1164 441.9771L 141.1164 441.9771z"/>
  <path class="TT" d="M114.6418 491.6168C 122.7772 496.9945 127.6033 498.2355 134.0841 495.3398L 132.0158 511.8864L 114.6418 491.6168L 114.6418 491.6168z"/>
  <path class="TT" d="M235.4322 443.2179C 247.1527 451.2155 253.4956 459.213 258.1838 467.2105C 259.8385 479.2068 251.1515 485.8255 242.0509 487.0665L 234.6049 489.9621L 226.7452 502.372C 207.9924 511.8863 204.1315 515.4715 194.893 513.1274C 190.2048 517.8156 190.8942 517.9535 182.0693 520.987L 164.2817 526.3647L 189.5153 540.4293C 191.5836 534.3622 195.3066 531.6045 199.4433 525.9511C 209.9918 517.8846 215.1626 514.7821 237.2937 501.7516L 278.4534 470.1062L 264.8025 456.8689L 235.4322 443.2179L 235.4322 443.2179L 235.4322 443.2179L 235.4322 443.2179z"/>
  <path class="TG" d="M468.9473 285.4032L 456.9509 297.8132L 436.2676 338.1457L 428.4477 341.5156C 435.762 327.3298 440.9183 315.7013 447.729 302.8066C 452.4004 295.5677 466.1037 281.4756 477.3417 270.0309L 468.9473 285.4032L 468.9473 285.4032z"/>
  <path class="TT" d="M335.1246 463.0755C 363.9432 474.6582 389.0389 501.1328 396.7606 513.9563C 400.4836 521.1265 408.3431 537.5351 409.9977 561.9413C 406.9642 553.9438 407.24 552.9785 403.7929 547.8768C 404.0687 574.9029 405.5855 576.2817 401.7246 603.7214L 393.8649 528.8482L 364.0811 484.9998L 335.1246 464.3165L 335.1246 463.0755L 335.1246 463.0755L 335.1246 463.0755z"/>
  <path class="GB" d="M440.4618 285.6574C 437.5855 280.636 435.148 278.686 434.0267 269.277C 426.2753 263.2319 408.4324 257.1869 409.4562 251.1418C 400.096 240.8553 403.3136 238.0278 402.4361 231.5439C 396.781 227.2539 387.9083 215.2125 393.9535 213.8474C 392.9297 212.7749 385.2271 207.7536 384.8858 194.3958L 348.6152 172.7503L 361.4854 192.6407L 380.7907 207.851L 388.9809 225.4013L 373.1856 213.7011L 402.4361 262.842L 424.6666 279.0666C 416.347 287.7114 409.7952 293.2626 401.4757 301.9074C 393.9626 305.8849 390.4777 305.7163 376.7395 304.1952L 380.2751 355.132L 409.4435 373.3648L 411.2113 317.2479L 440.4618 285.6574L 440.4618 285.6574L 440.4618 285.6574L 440.4618 285.6574L 440.4618 285.6574z"/>
  <path class="GB" d="M481.4126 248.8018L 492.5278 251.1418L 496.0378 260.502L 498.9629 261.6719L 498.3779 271.6172L 508.908 276.2973L 508.908 280.3923L 519.4382 290.9225C 514.5631 305.9378 503.5455 330.6057 503.9355 337.4308C 504.1305 343.6708 516.3182 353.1286 521.7783 357.6137L 525.8734 360.5387L 535.8186 378.0891L 552.1988 426.0599L 556.0078 441.1144C 561.3588 444.2739 570.0942 443.8924 575.6009 440.367C 577.9817 433.7902 573.6126 414.1856 567.6485 376.9042C 570.9544 359.1812 571.7603 350.2084 566.9411 336.8605L 537.7848 297.5235L 530.4713 289.2365L 515.6447 246.4778L 515.4024 229.7938L 503.6695 200.7354L 485.3085 142.8414C 479.8776 109.4788 464.5187 79.8394 423.099 51.4407L 459.3417 62.6286L 466.6278 70.5072L 498.3201 104.4468L 540.7678 163.6198L 540.1943 200.4549L 545.4121 227.3621L 558.4281 263.7119L 587.3543 320.391L 617.1644 340.8306L 632.4616 407.119L 639.8039 457.0552L 668.3596 526.4372L 668.1887 552.5084L 652.9917 577.2537L 638.2366 586.089L 636.8697 595.3402L 624.4541 572.3293L 622.2033 555.9477L 617.3009 556.36L 622.5632 524.5102L 595.5634 481.1699L 593.3126 474.069L 570.2893 507.3882L 560.9663 492.0932L 553.3689 495.0912L 537.5736 462.9156L 542.2536 435.4201L 537.5736 407.3396L 518.8532 373.994L 521.1933 392.7143L 507.153 371.0689L 503.643 375.164L 495.4528 373.994L 489.6027 337.1383L 499.5479 320.758L 511.2481 289.1674L 501.3029 278.6373L 489.6027 274.5422L 489.6027 264.012L 483.1676 256.9919L 481.4126 248.8018L 481.4126 248.8018L 481.4126 248.8018L 481.4126 248.8018L 481.4126 248.8018L 481.4126 248.8018L 481.4126 248.8018L 481.4126 248.8018L 481.4126 248.8018L 481.4126 248.8018z"/>
  <path class="GB" d="M197.0974 396.8094C 200.51 398.9057 203.3375 397.9306 206.4576 395.6394C 208.5052 389.838 210.114 388.4242 213.4777 384.2317C 220.2541 376.9189 228.3468 370.9225 237.1707 364.4875C 245.7996 359.0274 254.8673 353.1286 264.9587 348.2535L 236.8782 368.7289L 216.4028 386.2792L 216.6953 391.5443C 222.8379 389.5942 228.9805 386.4741 235.1231 382.1841C 241.7045 376.6265 246.3845 370.9227 253.2584 365.0725C 261.5461 360.5874 271.5888 358.8813 283.679 352.9336C 288.5541 350.5936 292.6979 347.961 298.3043 345.9135C 305.1294 344.8897 311.662 346.6448 318.7796 345.9135C 330.4311 342.2572 346.3239 338.3083 360.0229 335.6757L 350.9552 341.2334L 320.5347 352.9336L 294.2092 354.6887L 270.8088 365.8039L 240.0957 384.0854L 226.348 396.8094L 213.4778 403.0983L 202.6551 402.952L 197.0974 399.7344L 197.0974 396.8094L 197.0974 396.8094L 197.0974 396.8094L 197.0974 396.8094L 197.0974 396.8094L 197.0974 396.8094L 197.0974 396.8094L 197.0974 396.8094L 197.0974 396.8094L 197.0974 396.8094z"/>
  <path class="GB" d="M84.19046 184.4506L 109.3459 199.0758L 113.4409 207.851L 87.11552 196.7358L 81.26546 194.9808C 87.11552 198.4909 94.42812 202.0009 98.81572 205.511C 100.6682 207.266 100.7657 209.0211 101.7407 210.776C 96.18312 216.5287 94.72062 221.1112 91.21052 234.1764C 90.33302 242.5615 97.06062 250.9467 99.98572 259.3319C 99.20572 262.257 97.84072 263.7195 97.64572 268.1071C 97.93822 276.9797 104.0808 285.56 102.9108 297.3576C 100.6683 298.3327 95.50072 293.4575 91.79562 291.5075L 103.4958 322.5131L 112.2709 297.3576L 108.7609 253.4818L 114.611 212.5311L 126.3112 208.436L 132.7463 206.681L 145.6165 219.5512L 160.2418 225.9864L 170.187 202.5859C 170.187 202.5859 223.4229 194.3957 224.5929 196.1508C 225.763 197.9058 239.8032 200.8308 241.5583 200.8308C 236.0007 183.2805 215.9153 178.4054 204.1176 176.2604C 191.7349 176.5529 181.9847 179.7706 173.112 185.0356C 168.3344 188.7407 166.7744 192.4457 164.9219 196.1508L 157.3167 186.2056L 156.1467 180.3555L 148.5416 190.8857L 138.0114 182.1105L 148.5416 203.7559L 138.5964 199.6608L 128.0662 190.3007L 84.19046 184.4506L 84.19046 184.4506L 84.19046 184.4506L 84.19046 184.4506z"/>
  <path class="GB" d="M57.86502 204.9259L 66.64017 245.8766L 67.81019 254.6518L 75.41532 261.6719L 84.19046 282.1473L 49.08985 242.9516L 41.48472 234.1764L 52.01491 219.5512L 57.86502 204.9259z"/>
  <path class="GB" d="M147.3716 124.1945C 150.0756 122.8946 153.2217 124.0255 156.1467 123.6095C 161.5742 122.0429 166.4493 120.2553 170.772 116.5894C 173.1446 118.7279 175.8487 120.0928 179.5471 120.6845C 186.2032 119.1178 192.6384 116.7778 198.8525 113.6643C 201.6152 116.1342 205.2616 117.1677 208.7977 117.7593C 216.4288 115.8027 221.9633 112.7129 231.4418 110.6034C 249.382 109.4273 271.2522 119.4202 285.2627 117.0031L 302.305 106.6025C 307.9047 108.6615 318.6751 93.3464 330.4798 87.3388C 341.2878 90.1517 359.345 95.5706 395.416 91.4339C 401.4432 91.877 411.6071 97.6977 424.6666 100.2091C 432.8567 107.2292 447.8419 127.1547 459.7612 140.8526C 461.5222 146.1176 462.5147 151.7904 466.8877 158.7517C 466.1252 168.8744 475.5625 198.4909 475.5625 198.4909L 451.6835 148.1444L 439.2918 128.2896L 414.7214 106.6442L 404.1912 103.7191L 321.1197 100.2091L 309.4195 109.5692L 284.6067 118.3444L 262.0336 119.5144L 229.858 119.5144L 218.7428 126.5345L 202.9476 128.2896L 185.9822 128.2896L 184.2272 132.3847L 173.697 132.3847L 165.5069 132.3847L 157.9017 134.1397L 139.2919 140.477C 139.2919 140.477 144.8625 131.1688 147.3716 124.1945L 147.3716 124.1945z"/>
  <path class="GB" d="M300.0593 200.8309L 286.0191 199.6609L 294.7942 212.5311L 294.7942 223.0612L 282.509 211.9461L 278.4139 199.0759L 262.0336 162.8052L 274.0263 171.5804L 271.3938 155.7851C 271.3938 155.7851 277.9263 171.5803 284.5565 181.233C 291.5766 190.5932 297.3292 197.1258 300.0593 200.8309L 300.0593 200.8309z"/>
  <path class="GB" d="M240.9732 258.1619C 243.3133 267.3271 244.7758 276.4922 249.7484 285.6574C 251.2109 289.5575 255.8911 297.5525 258.5236 297.3576C 260.0836 297.3576 261.6436 296.7727 263.2036 295.6026L 257.3535 285.6574L 256.7685 280.9773C 258.9135 283.5123 261.0586 286.0474 263.2036 288.5824C 264.5686 291.1174 265.3487 293.6525 267.2987 296.1876C 271.6863 297.26 274.6114 296.5776 276.0739 291.5075C 276.6589 288.1923 276.0739 283.7074 276.0739 279.8073L 281.924 257.5769L 291.8692 271.0321L 286.6041 285.6574L 278.9989 291.5075L 280.1689 309.0578L 252.6734 303.2077L 240.9732 281.5623L 239.8032 264.3045L 240.9732 258.1619L 240.9732 258.1619L 240.9732 258.1619z"/>
  <path class="GB" d="M319.9497 304.9627L 310.5895 317.6972L 321.2683 323.7528L 319.469 325.43C 311.2095 327.1919 296.9288 331.4428 287.5756 336.6422C 294.7849 330.1229 309.4329 327.5019 313.9859 322.8576C 311.5816 321.2772 302.0512 318.611 297.3031 317.0307L 306.8536 310.5401L 295.9288 303.7572L 281.0465 302.4011L 288.7373 294.3971L 296.5492 296.1876L 296.5492 299.1126L 299.4743 300.8676L 306.4944 300.8676L 319.9497 304.9627L 319.9497 304.9627L 319.9497 304.9627L 319.9497 304.9627L 319.9497 304.9627L 319.9497 304.9627L 319.9497 304.9627z"/>
  <path id="G7" d="M91.21062 391.2517C 97.06072 392.6167 103.9346 395.1518 110.0772 395.4931C 114.3185 394.8593 116.8048 393.4942 119.8761 390.3742C 115.781 387.4492 111.3934 385.5479 107.5908 381.5991C 104.1295 378.284 102.1307 374.9689 99.40072 371.6539C 103.1058 374.384 106.0796 377.699 110.5159 379.8441C 113.441 381.5503 116.8048 383.5492 120.0223 383.3541C 122.3137 382.3303 124.0199 381.0141 123.2399 378.2354L 110.5159 366.9738C 115.391 368.9238 120.2661 373.0677 125.1412 372.824C 127.53 372.1901 129.48 371.1177 130.9913 368.7289C 132.2588 366.1939 133.0876 363.6587 133.3313 360.8313L 137.4264 369.8989L 122.9474 402.8058L 112.7097 403.8295L 97.64572 396.2244L 91.21062 391.2517L 91.21062 391.2517L 91.21062 391.2517z"/>
  <path id="TF" d="M340.0658 532.1416L 357.0973 562.3763L 359.1285 575.8139L 344.5971 592.689L 329.1283 583.314C 339.0763 586.4911 343.5555 586.5432 349.4409 580.8139C 354.3889 575.1368 347.618 553.6783 331.7845 530.0322L 340.0658 532.1416L 340.0658 532.1416z"/>
  <g
     transform="translate(-15.66278,-22.15273)">
    <path class="OO" d="M309.421 478.1959C 324.7058 483.7114 337.943 488.642 349.1328 494.7425C 361.125 501.3611 368.4371 505.9322 378.0893 514.5984C 391.0092 525.855 398.3715 538.8667 403.9788 551.5859C 409.0264 571.9933 412.319 591.2307 415.9041 611.6382C 416.7314 603.6407 417.5588 597.6907 417.8011 588.2307C 417.6089 575.3027 415.9543 562.3746 412.837 549.4465C 410.1491 540.279 404.5361 531.4041 398.6306 523.699C 393.4774 515.9467 387.4467 509.9494 379.6609 503.0746C 368.432 495.0241 358.3731 488.7285 343.3416 481.2629C 335.3273 477.5942 327.6056 475.388 320.1763 474.0593L 309.421 478.1959L 309.421 478.1959L 309.421 478.1959L 309.421 478.1959z"/>
    <path class="OO" d="M418.2822 567.0963L 422.6698 578.7965L 425.0098 596.9318C 425.3023 591.1792 426.4723 585.4266 425.8873 579.6741C 424.3273 573.9215 422.4747 568.1689 419.4522 562.4163L 418.2822 567.0963L 418.2822 567.0963z"/>
    <path class="OO" d="M412.8373 429.3833C 412.8373 430.6243 425.2472 438.0703 425.2472 438.0703L 437.6571 440.9659L 449.2398 443.0342L 449.2398 445.1025L 443.0348 451.3075L 438.8981 458.3398L 438.8981 462.4765L 449.2398 455.4442L 448.8261 459.5808L 440.9665 466.6131L 440.9665 467.8541L 452.1354 461.6491L 447.1714 469.0951L 443.0348 472.8181L 443.8621 479.4367L 445.9304 485.228L 440.5528 484.4007L 440.5528 492.674L 445.1031 495.5697L 439.7255 497.6379L 442.6211 500.9473L 441.7938 505.9113L 438.4845 507.1523L 438.4845 510.0479L 435.5888 510.0479L 433.5205 513.3572L 434.3478 507.1523L 435.5888 496.8106L 434.3478 489.7783L 434.3478 484.4007L 439.7255 479.4367L 437.6571 469.9224L 431.4522 465.7858L 425.2472 464.9585L 430.2112 461.6491L 435.5888 463.7175L 437.6571 455.4442L 444.6894 446.3435L 443.8621 444.2752L 433.5205 443.0342L 423.1789 440.9659L 416.1466 436.8293L 410.7689 430.6243L 412.8373 429.3833z"/>
    <path class="OO" d="M207.6596 480.6777C 207.6596 480.6777 224.6199 457.0988 225.8609 457.0988C 230.8584 457.5407 240.8784 458.2267 248.6124 459.9945C 256.3872 462.1424 264.383 465.3951 276.3563 472.4044C 278.9478 474.0308 283.0862 476.541 285.0149 478.6094C 292.7419 484.5139 294.2817 486.8827 298.2522 491.0193L 298.2522 495.156L 280.8783 503.4293L 259.3677 519.1485L 253.1627 525.3535L 250.6808 525.3535L 256.0584 515.0119C 256.0584 515.0119 251.9217 514.5982 251.9217 515.8392C 251.9217 517.0802 243.6485 530.3175 243.6485 530.3175L 236.6162 531.5585L 234.5478 528.6628L 252.7491 505.9113L 260.195 505.9113L 258.954 512.1162L 271.364 503.8429L 285.0149 496.3969C 281.4864 490.1636 277.2949 484.8144 271.7776 479.0231C 265.8749 474.0291 262.182 472.1287 256.0584 468.6815C 253.7161 467.1647 249.8269 465.6479 245.2748 464.1311C 239.3174 463.4134 235.7906 462.9166 229.1702 463.3038L 220.8969 475.7137L 209.728 483.987L 207.6596 480.6777L 207.6596 480.6777L 207.6596 480.6777z"/>
    <path class="OO" d="M266.8137 445.1025L 284.6012 443.8615L 297.0112 441.7933L 321.8311 441.7933L 337.1367 438.4839L 301.1478 435.5883L 282.5329 436.4156L 266.8137 445.1025z"/>
    <path class="OO" d="M184.0808 440.1386L 172.9118 446.3435L 158.4335 450.4802L 159.2609 462.8901C 154.8485 467.3025 150.436 472.6525 146.0236 477.0649C 141.5377 483.6835 137.3643 489.3647 135.066 495.9833C 133.4391 502.464 132.1246 508.9448 132.3727 515.4255L 144.7826 527.8355L 146.8509 529.0765L 145.6099 509.6342L 148.9193 489.7783C 148.9193 489.7783 151.8149 491.433 151.8149 492.674C 151.8149 493.915 153.0559 510.4615 153.0559 510.4615L 155.1242 529.0765L 168.3615 539.4181L 177.8758 544.3821L 198.559 543.5547L 177.0485 550.587L 167.5342 547.6914L 148.9193 539.4181L 126.995 522.0442L 124.0994 512.5299C 125.506 505.6355 128.1626 498.7411 131.1317 491.8467C 133.3656 486.3312 137.787 481.7531 141.5835 476.2376C 145.0951 472.3767 148.2943 467.5783 153.0559 463.7175L 150.9876 454.6169L 142.7143 443.4479L 130.3043 443.4479L 126.1677 443.4479L 124.0994 432.6926L 114.9988 426.9013L 119.9627 424.4193L 130.3043 433.9336L 138.5776 433.9336L 146.0236 438.0703L 157.1925 445.1025L 184.0808 440.1386L 184.0808 440.1386L 184.0808 440.1386L 184.0808 440.1386z"/>
    <path class="OO" d="M169.6025 395.8764C 169.6025 397.5311 172.4981 407.0454 172.4981 407.0454L 176.6348 403.7361L 176.6348 393.3945L 172.4981 389.6715L 169.6025 395.8764z"/>
    <path class="OO" d="M162.9839 548.5187L 162.5702 590.7125C 162.5702 590.7125 174.1528 629.5969 174.1528 630.8379C 174.1528 632.0789 190.6994 658.9671 190.6994 658.9671L 205.1776 672.2044L 251.5081 675.5137L 290.8062 670.1361L 310.6621 659.7945L 339.6186 632.0789L 354.0969 619.7792C 358.2986 616.5382 364.0955 613.7023 370.351 608.5001C 373.0211 605.3538 374.5211 602.0612 375.7286 597.7448L 373.9528 579.1299L 363.6112 561.756C 359.0799 555.1546 355.322 550.8734 348.581 546.4818C 343.9568 544.558 340.1061 543.6286 335.482 543.1411C 334.7557 546.101 334.1399 549.5028 333.9661 553.0151C 333.3297 559.4127 334.4611 565.9209 335.1505 572.5395L 342.0833 609.9316C 343.278 616.8761 338.7102 621.0742 336.0376 626.5343L 345.8236 605.1907L 344.9963 596.9175L 338.7913 573.3386C 337.4938 567.5464 337.4116 562.3066 337.5503 557.6193C 337.6873 555.2752 338.3767 552.3787 339.6186 550.587C 341.9079 550.8071 343.9762 551.1377 345.8236 552.2417C 349.4935 554.1165 350.7328 555.5493 352.8559 558.8603L 362.3702 574.9933L 366.5068 582.4392L 369.8161 583.6802L 372.4193 591.757C 372.7369 594.6777 372.9082 597.7448 371.4708 600.2268C 369.5404 603.2603 368.6337 605.5626 364.3633 608.0111C 361.3549 609.3274 357.7614 609.7662 354.3141 609.0349L 345.8236 605.1907L 336.0376 626.5833L 327.2087 639.1113L 318.9354 648.6255L 306.5706 659.5561L 290.8062 667.4428L 254.8174 672.2044L 207.246 669.3088L 193.595 654.8305L 180.3578 630.8379L 169.1888 602.2951L 164.6385 585.3349L 165.0522 560.9287L 163.8112 545.2094L 162.9839 548.5187L 162.9839 548.5187L 162.9839 548.5187L 162.9839 548.5187L 162.9839 548.5187L 162.9839 548.5187L 162.9839 548.5187z"/>
    <path class="OO" d="M129.8723 523.5128C 128.7023 523.5128 122.8522 538.138 122.8522 538.138L 124.0222 543.9881L 121.0972 555.6883L 124.0222 568.5586L 126.9473 566.2185L 129.8723 559.7834L 132.7974 567.3885L 131.6273 574.4087L 133.9674 576.1637L 138.6475 569.1436L 154.4427 583.1838L 163.2179 591.959L 163.2179 572.0686L 151.5177 569.1436L 137.4774 554.5183L 131.6273 545.7432L 131.6273 531.1179L 133.9674 526.4378L 129.8723 523.5128L 129.8723 523.5128z"/>
    <path class="OO" d="M187.2033 552.7633L 201.2436 554.5183L 204.1686 551.5933L 207.6787 567.3885L 210.6038 586.6939L 216.4539 600.7341L 207.6787 584.9389L 201.8286 563.2935L 195.9785 558.6134L 187.2033 552.7633z"/>
    <path class="OO" d="M212.9438 557.4434L 212.9438 568.5586L 214.6988 580.2588L 210.0187 567.3885L 212.9438 557.4434z"/>
    <path class="OO" d="M164.1154 595.0003C 162.8279 602.8005 161.6966 610.7568 161.9717 618.8695C 162.9054 626.0846 164.7767 633.7684 168.6793 640.5148C 173.4356 647.7311 179.1294 653.3851 185.4483 659.8202L 188.3734 652.8001C 183.692 648.6275 179.7919 644.7674 176.5168 639.6573C 172.3018 633.3384 170.4305 628.2696 169.1842 622.107C 167.818 616.2569 168.483 610.0943 167.898 604.2442L 164.1154 595.0003L 164.1154 595.0003z"/>
    <path class="OO" d="M187.2033 653.1427C 180.7976 662.5836 178.9332 676.7582 179.4676 681.4656C 179.8257 685.6018 189.035 695.8959 198.3185 703.111C 203.5889 706.3498 208.0781 707.7136 214.5985 709.0774C 228.941 709.0011 248.596 707.9873 265.5947 706.036L 307.1305 700.1859L 333.4559 681.4656L 359.1964 659.2352L 389.0319 627.4521L 389.0319 617.0019L 368.5566 641.6849L 334.626 675.6155L 310.085 694.3358L 300.6953 699.0159L 253.2385 703.7262C 237.6606 704.5895 218.9578 704.5153 208.8487 701.941C 193.973 694.8205 185.3764 684.8875 183.4064 679.7061C 182.7325 675.1926 184.7058 663.0227 189.3634 654.2444L 188.0306 652.3154L 187.2033 653.1427L 187.2033 653.1427L 187.2033 653.1427L 187.2033 653.1427L 187.2033 653.1427L 187.2033 653.1427z"/>
    <path class="OO" d="M225.229 707.7911L 234.0042 719.4912L 243.9493 755.7619L 246.8744 760.442L 273.1999 754.5919L 300.6953 747.5718L 324.6808 744.6467L 331.7009 746.9867L 328.7759 742.8917L 335.796 741.7217L 346.3262 746.9867L 350.4212 746.9867L 352.1763 739.9666L 355.1013 745.8167L 360.9514 741.7217L 362.1214 731.1915L 366.8015 725.3413L 366.8015 729.4364L 369.7266 728.2664L 369.7266 722.4163L 377.3317 716.5662L 379.6717 710.7161L 393.127 689.0707L 408.9223 674.4455L 425.3026 655.1401L 441.0978 637.5898L 456.3081 625.8896L 470.9334 621.7945L 459.2332 620.0395L 461.5732 618.8695L 472.1034 618.8695L 477.9535 618.8695L 466.2533 614.1894L 473.2734 608.3393L 482.6336 613.0194L 484.9736 615.3594L 482.0486 607.1693L 476.7835 602.4892L 480.8786 593.714L 482.0486 589.619L 489.6537 599.5641L 489.6537 592.544L 482.6336 586.6939L 486.7287 584.9389L 493.7488 587.8639L 496.6739 583.7689L 492.5788 579.0888L 485.5586 572.0686L 485.5586 559.7834L 490.8237 546.9132L 495.5038 549.8382L 501.3539 543.9881L 492.5788 543.9881L 489.6537 535.213L 498.4289 532.2879L 486.7287 521.7577L 479.7085 505.9625L 476.7835 483.1471L 476.7835 460.9166L 480.8786 467.9368L 484.9736 481.392L 489.6537 488.4121L 486.7287 469.6918L 486.7287 453.8965L 482.0486 442.1963L 475.0285 430.4961L 474.5865 415.0522L 455.7231 415.2858L 466.2533 425.816L 473.2734 440.4413L 483.8036 455.0666L 484.9736 466.7667L 476.7835 452.1415L 472.1034 462.0867L 473.8584 476.7119L 472.1034 488.4121L 475.0285 511.8126L 482.6336 525.2678L 482.6336 534.043L 484.9736 539.8931L 479.1235 551.5933L 480.8786 569.1436L 480.8786 576.7487L 477.9535 582.5988L 476.7835 586.6939L 470.3484 590.789L 472.1034 603.0742L 469.1784 607.1693L 463.3282 613.0194C 463.3282 613.0194 460.9882 614.7744 462.1582 614.7744C 463.3282 614.7744 454.5531 618.8695 454.5531 618.8695L 456.3081 620.0395L 448.703 624.7196L 448.703 626.4746L 432.3227 637.5898L 407.7523 664.5003L 388.4469 686.1457L 372.6516 712.4711L 359.7814 724.7564L 356.8563 728.8514L 339.306 732.9465L 347.4962 735.8716L 349.2512 736.4566L 346.3262 738.7966L 333.4559 739.3816L 329.9459 740.5516L 312.9806 741.7217L 297.7703 743.4767L 280.805 749.3268L 267.3498 749.3268L 261.4997 749.3268L 248.6294 745.2317L 239.8543 725.9264L 250.9695 734.7015L 258.5746 740.5516L 248.6294 724.7564L 242.7793 717.1512L 231.0791 708.3761L 225.229 707.7911L 225.229 707.7911z"/>
    <path class="OO" d="M174.9181 328.7043L 181.3532 331.6294L 197.1485 325.7792L 211.7738 311.154L 226.399 299.4538L 220.5489 299.4538L 198.9035 315.2491L 188.3734 324.6093L 176.6731 325.7792L 174.9181 328.7043z"/>
    <path class="OO" d="M150.3477 293.6037L 160.2929 295.3587L 177.8432 291.8486L 176.6731 289.5086L 160.8779 290.6786L 150.3477 293.6037z"/>
    <path class="OO" d="M131.6273 240.9527L 128.7023 262.5982L 126.9473 274.2984L 128.7023 299.4538L 130.4573 317.0041L 140.4025 321.0991L 140.4025 325.7792L 130.4573 322.8542L 127.5323 334.5544L 124.6072 347.4247L 117.0021 350.9347L 115.8321 345.0846L 118.7571 340.4045L 122.8522 322.8542L 124.0222 319.9292L 121.6822 309.9839L 124.6072 293.6037L 121.0972 278.9784L 122.8522 247.9728L 122.8522 238.0277L 131.6273 240.9527z"/>
    <path class="OO" d="M150.9327 327.5343L 157.9528 327.5343L 155.0278 321.6842L 146.2526 322.8542L 146.2526 325.7792L 143.3276 329.8743L 147.4226 334.5544L 157.9528 334.5544L 156.7828 330.4593L 150.9327 327.5343z"/>
    <path class="OO" d="M240.4393 436.9312L 248.0444 442.7813L 249.2144 439.8563L 263.8397 436.9312L 274.3699 434.0062L 288.9951 431.0811L 303.6204 426.401L 290.7502 427.5711L 300.6953 419.3809L 314.1506 410.0207L 321.1707 400.0756L 343.4011 398.9055L 336.966 395.3955L 297.7703 393.0555L 273.1999 398.3205L 252.1395 408.8508L 259.7446 405.9256L 250.9695 412.9458L 242.1943 423.476L 236.3442 430.4961L 227.569 432.2511L 234.5892 435.1762L 241.0243 431.0811L 252.1395 417.6259L 261.4997 405.9256L 275.5399 403.0006L 300.1103 401.2456L 316.4906 400.0756L 284.315 397.7355L 303.6204 397.1505L 320.0007 398.3205L 311.2255 407.0957L 299.5253 417.6259L 283.145 429.3261L 268.5198 429.3261L 256.8196 435.1762L 248.0444 434.0062L 240.4393 436.9312L 240.4393 436.9312z"/>
    <path class="OO" d="M255.8379 416.9531C 258.6055 418.2039 259.5075 419.5747 260.4458 422.306C 261.4715 426.4538 261.0721 430.8874 259.7446 434.0062L 269.6898 431.2374C 269.2998 427.3373 268.9098 423.4372 267.7386 419.5372C 266.8823 416.7284 265.0885 414.3883 262.6697 412.5171C 261.1096 411.5414 259.2087 411.0021 257.4924 410.6515L 252.6891 416.7874C 253.8123 416.4927 254.9909 416.5295 255.8379 416.9531L 255.8379 416.9531L 255.8379 416.9531z"/>
    <path class="OO" d="M245.1194 426.401L 249.2144 427.5711C 249.0182 429.1311 250.072 430.6911 250.9695 432.2511L 248.0444 434.0062C 246.2881 431.7836 245.3131 428.9361 245.1194 426.401L 245.1194 426.401z"/>
    <path class="OO" d="M374.9917 536.383L 391.372 553.9333L 396.0521 575.5787L 397.2221 610.6793C 397.2221 610.6793 391.957 644.61 390.202 645.78C 388.4469 646.95 388.4469 615.3594 388.4469 615.3594L 389.6169 589.0339L 386.6919 590.2039L 375.5767 569.7286L 367.9715 553.9333L 374.9917 555.1033L 386.6919 576.7487C 386.6919 576.7487 389.6169 580.2588 389.6169 581.4288C 389.6169 582.5988 389.6169 569.7286 389.6169 569.7286L 383.7668 549.2532L 374.9917 536.383z"/>
    <path class="OO" d="M277.8799 393.6405L 314.1506 380.1852L 353.9313 377.2602L 365.6315 377.2602L 359.7814 368.485L 369.7266 364.3899L 377.3317 358.5399L 371.4816 353.8598L 362.7065 350.9347L 349.8362 342.1595L 330.5309 346.2546L 331.7009 349.7647L 351.0062 346.2546L 359.7814 350.9347L 369.7266 355.0298L 375.5767 357.9548L 369.7266 361.4649L 349.8362 366.73C 349.8362 366.73 337.551 371.41 336.381 371.41C 335.211 371.41 312.9806 372.5801 312.9806 372.5801L 282.56 388.9604L 254.4795 406.5107L 242.7793 416.4559L 228.1541 425.231L 231.0791 418.2109L 235.1742 409.4358L 254.4795 388.9604L 235.7592 403.5856L 226.984 415.2858L 224.059 425.816L 231.0791 425.816L 241.0243 419.9659L 260.3296 403.5856L 277.8799 393.6405z"/>
    <path class="OO" d="M322.9258 342.7446L 336.381 333.9694L 340.4761 325.1942L 324.6808 330.4593L 310.0555 339.2345L 314.1506 342.1595L 327.6058 331.0444L 333.4559 329.2893L 329.3608 333.3844L 318.8307 342.1595L 322.9258 342.7446z"/>
    <path class="OO" d="M329.9331 326.0908L 322.913 321.9957L 314.1378 321.4107L 319.9879 316.1456L 305.3627 315.5607L 301.2676 318.4857L 309.4577 319.0707L 311.2128 321.4107L 315.3078 324.3358L 321.158 323.1658L 329.9331 326.0908z"/>
    <path class="OO" d="M283.73 337.4794L 257.9896 355.6148L 240.4393 367.9L 225.229 381.3553L 216.4539 397.7356L 217.6239 409.4358L 213.5288 405.3407C 213.5288 405.3407 210.6038 405.9256 210.6038 407.6807C 210.6038 409.4358 213.5288 421.1359 213.5288 421.1359L 218.2089 425.231L 223.474 424.061L 221.1339 425.231L 212.3588 424.061L 207.6787 414.1158L 209.4337 397.7356L 209.4337 393.6405L 219.3789 384.8653L 222.304 378.4302L 232.8341 368.485L 245.7044 358.5399L 261.4997 346.8396L 269.1048 342.1595L 279.05 336.3095L 273.7849 333.3844L 232.8341 366.73L 229.9091 365.56L 246.8744 352.6897L 272.0298 330.4593L 283.73 337.4794L 283.73 337.4794z"/>
    <path class="OO" d="M142.1575 418.2109L 153.8577 393.6405L 157.9528 392.4704L 152.6877 384.8653L 148.0076 380.7702L 150.9327 388.9604L 140.9875 414.1158L 142.1575 418.2109z"/>
    <path class="OO" d="M146.8376 377.2602L 136.6962 370.4326L 130.4573 360.2948L 117.5071 356.9774L 102.9618 340.9895L 107.0569 352.6897L 95.35669 348.5946L 98.28175 356.7848L 99.45177 368.485L 98.28175 371.41L 89.50658 364.3899L 95.35669 377.2602L 96.52672 383.6953L 91.26163 383.6953L 95.35669 394.8105L 89.50658 399.4906L 79.56141 403.5856L 90.67661 405.3407L 95.35669 409.4358L 79.56141 415.2858L 90.67661 419.9659L 102.3768 417.0409L 118.7571 421.721L 122.8522 419.9659L 115.8321 418.2109L 107.0569 412.9458L 95.35669 415.2858L 91.26163 414.1158L 97.11173 411.1908L 101.2068 412.3608L 101.2068 410.0207L 90.67661 401.2456L 98.28175 398.3205L 101.2068 398.3205L 107.0569 402.4156L 101.2068 393.6405L 100.0368 384.8653L 101.2068 384.8653L 112.907 387.7903L 109.982 383.6953L 105.8869 381.9403L 98.28175 381.9403L 99.45177 377.8452L 104.1319 379.0152L 98.28175 371.9951L 102.3768 370.2401L 105.8869 374.9202L 104.1319 369.07L 109.982 371.41L 102.9618 363.22L 102.9618 355.6148L 109.982 358.5399L 112.907 361.4649L 115.8321 358.5399L 123.9822 360.6073L 130.4573 364.3899L 133.3824 371.41L 146.8376 377.2602L 146.8376 377.2602z"/>
    <path class="OO" d="M126.3622 425.816L 132.2123 428.156L 140.4025 424.061L 126.3622 425.816L 126.3622 425.816z"/>
    <path class="OO" d="M431.7377 330.4593L 465.6683 295.3587L 496.0888 256.163L 500.1839 259.0881L 500.1839 274.8833L 503.694 284.2435L 510.7141 286.5835L 507.789 292.4337L 507.789 297.1138L 523.5843 301.2088L 522.4143 305.8889L 528.2644 308.814L 529.4344 309.9839L 516.5642 342.7446L 507.789 362.6349L 514.5167 388.9604C 514.9067 395.9805 516.1743 403.0005 516.5642 410.0207C 515.7842 414.7983 514.4192 417.2358 512.4691 419.9659C 508.569 423.7685 504.669 425.2311 499.0139 425.8161C 493.1638 425.7186 487.3137 421.5259 481.4636 418.7959L 472.6884 415.8709L 463.9133 415.8709L 480.2935 410.0207L 488.7762 415.8708C 492.0912 418.4058 495.4063 420.3559 499.5989 422.0135C 502.7189 421.6234 505.254 421.2334 507.789 419.3809C 510.8115 415.4808 511.7866 412.7508 512.4691 408.2657L 508.959 392.4704L 506.034 374.9202L 501.9389 363.22L 511.8841 345.6696L 519.4893 327.5343L 522.4143 317.5891L 524.1693 311.739L 519.4893 310.569L 516.5642 308.814L 516.5642 304.7189L 510.7141 301.7938L 506.034 300.0388L 501.9389 297.1138L 504.864 291.2636L 503.694 288.3386L 497.8439 285.4136L 496.0888 276.6384L 494.3338 269.0332L 490.2387 271.9583L 481.4636 282.4884L 463.9133 302.9638L 445.1929 323.4392L 437.5878 333.3844L 427.6426 340.9895L 427.6426 332.2144L 431.7377 330.4593L 431.7377 330.4593L 431.7377 330.4593L 431.7377 330.4593L 431.7377 330.4593z"/>
    <path class="OO" d="M507.789 312.9091L 507.789 333.3844L 499.0139 359.7098L 494.9188 371.41L 494.9188 380.1852L 487.3137 383.1102L 488.4837 377.2602L 491.4087 365.56L 499.0139 345.0846L 503.694 330.4593L 507.789 312.9091z"/>
    <path class="OO" d="M489.0687 298.2837L 489.0687 305.3039L 477.3685 317.0041L 456.8931 361.4649L 453.9681 363.8049L 460.9882 363.8049L 466.8383 380.1852L 469.7634 384.2803L 478.5385 386.0354L 484.3886 391.8854L 478.5385 395.9805L 469.7634 388.9604L 462.7432 381.9403L 455.1381 365.56L 451.043 364.3899L 452.2131 361.4649C 452.2131 361.4649 446.363 361.465 446.363 362.6349C 446.363 363.8049 453.3831 352.6897 453.3831 352.6897L 466.8383 324.6093L 479.7085 308.229L 489.0687 298.2837z"/>
    <path class="OO" d="M469.7634 349.1797L 478.5385 357.9548L 483.2186 362.6349L 484.3886 358.5399L 485.5586 356.7848L 479.7085 348.0096L 469.7634 342.1595L 472.6884 348.0096L 469.7634 349.1797z"/>
    <path class="OO" d="M515.3942 396.5655L 522.4143 402.4156L 525.9243 428.7411L 528.8494 408.2657L 524.1693 393.6405L 532.9445 414.1158L 538.7946 422.891L 542.8897 435.7612L 534.6995 401.2456L 544.6447 415.2858L 553.4198 437.5163L 558.0999 456.8216L 552.2498 487.2421L 572.1402 529.3629L 577.9903 528.1929L 575.6503 518.2477L 582.6704 529.3629C 582.6704 529.3629 582.0853 539.8931 583.8404 539.8931C 585.5954 539.8931 589.6905 531.1179 589.6905 531.1179L 604.3158 504.7924L 614.8459 496.0173L 610.1659 468.5218L 607.8258 445.1214L 599.0507 428.7411L 594.3706 402.4156L 594.3706 380.7702C 594.3706 380.7702 586.1805 384.8653 587.3505 384.8653C 588.5205 384.8653 590.2755 412.3608 590.2755 412.3608L 594.3706 431.6662L 601.9757 443.3664L 606.0708 479.637L 607.2408 497.1873L 600.2207 507.7175L 593.2006 517.6627L 593.2006 504.7924L 597.2956 484.3171L 592.6155 487.2421L 589.6905 504.7924L 590.2755 517.6627L 586.7654 527.0228L 575.6503 512.3976L 570.9702 514.7376L 565.12 500.1124L 556.3449 488.9972L 561.025 468.5218L 556.3449 438.6863L 553.4198 424.646L 538.7946 398.3205L 530.0194 383.6953L 521.2443 379.0152L 532.9445 394.8105L 534.6995 408.2657L 521.2443 389.5454L 520.0742 394.8105L 515.3942 396.5655z"/>
    <path class="OO" d="M610.7509 503.0374L 625.3761 526.4378L 636.4913 549.8382L 634.1513 567.9736L 629.4712 586.6939C 629.4712 586.6939 637.0763 578.5038 637.0763 579.6738C 637.0763 580.8438 638.2463 596.6391 638.2463 596.6391L 648.7766 618.8695L 651.7016 622.9646L 655.7968 608.9243L 671.5919 601.3192L 687.9724 576.7487L 685.0472 556.2734L 690.8973 558.6134L 678.027 525.2678L 667.4969 500.1124L 661.6468 478.467L 664.5718 472.6169L 655.7968 478.467L 652.8716 460.9166L 648.7766 425.816L 638.2463 384.8653L 634.1513 360.2948L 614.8459 351.5197L 590.2755 313.494L 573.8952 282.4884L 563.95 249.1429L 559.2699 228.6675L 559.2699 195.3219L 563.365 190.6418L 538.7946 155.5412L 537.6245 161.3913L 542.8897 176.0166L 553.9044 187.7756L 553.3195 224.0462L 558.0999 244.6048L 562.195 256.163L 569.2151 272.5433L 576.8203 303.5489L 583.8404 317.5891L 595.5406 338.6495L 603.1457 361.4649L 614.8459 367.315L 621.8661 383.6953L 624.7911 412.9458L 638.2463 448.0464L 626.5461 404.1707L 623.6211 383.6953L 619.526 371.9951L 624.7911 373.1651L 614.8459 364.9749L 604.9008 351.5197L 616.016 358.5399L 630.6412 364.9749L 638.2463 398.3205L 647.0215 433.4212L 649.9466 467.9368L 654.6266 481.392L 661.6468 496.0173L 669.252 522.3428L 674.517 541.0631L 677.442 564.4635L 679.1971 547.4982L 682.1221 555.6883L 679.1971 576.1637L 672.1771 592.544L 662.8168 603.0742L 652.8716 608.3393L 652.8716 615.9444L 641.1714 595.4691L 639.4164 579.0888L 637.0763 576.7487L 634.1513 577.9187L 640.0013 555.6883L 638.2463 546.9132L 632.3962 534.043L 628.3012 515.3226L 618.941 500.6974L 623.6211 513.5676L 610.7509 503.0374L 610.7509 503.0374z"/>
    <path class="OO" d="M496.6739 159.0513L 512.4691 174.8465L 525.3394 201.1721L 512.4691 182.4517L 519.4893 205.2671L 521.6873 215.5134L 532.9445 226.9835L 527.951 226.3568L 522.9993 223.4025L 525.3394 236.2726L 532.9445 249.1429L 540.5496 259.673L 548.7398 266.6932L 540.5496 265.5232L 537.0396 263.7681L 553.4198 284.2435L 547.5697 280.1484L 531.7744 265.5232L 537.0396 280.1484L 545.8147 295.9437L 556.3449 309.399L 540.5496 294.7737C 540.5496 294.7737 546.9847 312.324 548.7398 312.324C 550.4948 312.324 565.12 328.1193 565.12 328.1193L 580.9153 338.6495L 582.6704 342.7446L 562.195 329.8743L 577.9903 345.6696L 586.7654 351.5197L 573.8952 346.2546L 589.6905 367.9L 594.3706 370.8251L 569.8001 350.3497L 561.025 337.4794L 548.7398 326.9493L 551.6648 319.9292L 543.4747 315.2491L 543.4747 309.399L 534.6995 287.7536L 524.1693 268.4482L 515.3942 249.7279L 515.3942 243.8778L 528.8494 265.5232L 528.8494 252.6529L 517.1492 233.3476L 514.2242 215.7973L 506.619 192.3969L 505.449 177.7717L 496.6739 159.0513L 496.6739 159.0513z"/>
    <path class="OO" d="M347.4962 190.0568L 359.7814 194.1519L 367.9715 192.9819L 401.9022 217.5523L 390.202 214.6272L 365.6315 197.077C 365.6315 197.077 381.4268 211.7022 381.4268 213.4573C 386.1069 221.0623 401.9022 231.0076 401.9022 231.0076L 407.7523 235.6877L 398.9771 235.6877L 411.8473 252.6529L 415.3574 260.2581L 391.372 239.1978L 404.8272 260.2581L 417.6974 269.0332L 424.1325 271.9583L 410.6773 269.0332L 416.5274 277.8084L 432.9077 294.1887L 442.8529 302.3788L 438.1728 311.154L 428.2276 324.6093L 429.3976 340.4045L 427.0576 372.5801L 428.2276 394.8105L 434.0777 416.4559L 421.2075 396.5655L 423.5476 406.5107L 434.0777 424.061L 418.2824 408.2657L 401.9022 393.6405L 404.8272 388.9604L 398.9771 384.8653L 396.0521 390.1304L 390.202 380.1852L 393.127 371.41L 390.202 356.7848L 388.4469 350.9347L 390.202 323.4392L 370.8966 298.2837L 367.9715 295.3587L 367.9715 298.2837L 353.3463 285.4136L 345.1561 279.5634L 345.1561 284.8285L 339.306 276.6384L 336.381 263.1831L 329.9459 249.7279L 322.9258 238.6127L 318.8307 239.7828L 315.9056 231.0076L 310.0555 223.9875C 310.0555 223.9875 308.3005 224.5724 308.3005 226.3275C 308.3005 228.0826 301.2804 223.9875 301.2804 223.9875L 298.3553 216.3823L 292.5052 207.6072L 292.5052 200.5871L 305.3754 217.5523L 317.0756 223.4025L 321.7557 232.1776L 328.7759 239.7828L 331.7009 243.8778L 334.626 239.7828L 339.306 256.163L 341.6461 267.2782L 351.5912 274.2983L 366.8016 289.5086L 381.4268 302.3788L 390.202 315.8341L 394.297 329.2893L 394.882 340.9895L 394.882 345.0846L 397.2221 333.3844L 397.2221 324.6093L 398.9771 337.4794L 397.8071 355.0298L 397.8071 371.41C 397.8071 371.41 400.7322 375.5051 401.9022 375.5051C 403.0722 375.5051 404.8272 373.1651 404.8272 373.1651L 417.6974 387.2053L 422.3775 390.1304L 423.5476 376.0901L 419.4525 377.2602L 425.3026 345.0846L 425.3026 330.4593L 428.2276 318.7591L 435.2477 308.814L 438.7578 304.1339L 428.2276 294.1887L 431.1527 300.0388L 435.2477 302.3788L 420.6225 290.6786L 412.4323 282.4884L 397.8071 273.1283L 381.4268 261.4281L 375.5767 254.408L 389.0319 264.3531L 407.7523 274.8833L 411.8473 276.0534L 403.6572 263.1831L 391.372 245.6328L 382.5968 229.2525L 398.9771 240.9528L 391.957 231.0076L 381.4268 221.0624L 369.7266 208.7772L 372.6516 208.7772L 358.0264 198.832L 347.4962 190.0568L 347.4962 190.0568z"/>
    <path class="OO" d="M175.5031 251.483L 185.4483 231.0075L 197.1485 225.1575L 215.8688 221.0624L 225.229 221.0624L 218.2089 225.1574L 203.5836 229.2525L 220.5489 226.9125L 234.0042 223.9875L 242.7793 223.9875L 252.7245 231.0076L 258.5746 243.8778L 258.5746 261.4281L 255.6495 273.1283L 253.3095 287.7536L 253.3095 301.2088L 254.4795 286.5835L 256.2346 295.3587C 256.2346 295.3587 256.2346 306.474 256.2346 308.229C 256.2346 309.9839 258.5746 321.6842 258.5746 321.6842L 258.5746 311.739L 266.1797 325.7792L 279.05 336.3095C 279.05 336.3095 286.0701 338.6494 287.8251 340.4045C 289.5802 342.1595 299.5253 348.0096 299.5253 348.0096L 301.2804 345.0846L 298.3553 336.3095L 301.2804 333.3844C 301.2804 333.3844 305.3754 337.4795 305.3754 336.3095C 305.3754 335.1394 301.2804 325.7793 301.2804 324.6093C 301.2804 323.4392 298.3553 318.7591 298.3553 318.7591L 295.4303 314.079L 302.4504 308.814L 308.3005 302.9638L 312.9806 299.4538C 312.9806 299.4538 321.1707 299.4538 320.0007 299.4538C 318.8307 299.4538 310.0555 292.4337 310.0555 292.4337L 301.2804 282.4884L 305.9604 269.0332L 308.3005 263.1831L 312.9806 257.333L 315.9056 251.483L 312.9806 244.4628C 312.9806 244.4628 311.8106 238.6127 312.9806 238.6127C 314.1506 238.6127 321.7557 248.5579 321.7557 248.5579L 318.8307 241.5378L 310.0555 231.0076L 305.9604 226.9125L 300.1103 221.0624L 292.5052 206.4371L 292.5052 197.6619L 288.4101 180.1117L 285.4851 175.4316L 288.4101 187.1318L 290.7502 201.757L 290.7502 206.4371L 285.4851 194.7369L 274.9549 180.1117L 283.73 195.907L 290.7502 208.7772L 299.5253 222.2324L 298.3553 233.9326L 302.4504 228.0826L 308.3005 233.9326L 310.0555 244.4628L 305.9604 251.483L 311.2255 251.483L 308.8855 258.5031L 299.5253 271.9583L 291.3352 289.5086L 289.5802 301.2088L 292.5052 311.154L 293.6752 301.2088L 298.3553 283.6585C 298.3553 283.6585 302.4504 288.3387 302.4504 289.5086C 302.4504 290.6786 302.4504 296.5287 302.4504 296.5287L 301.2804 304.1339L 294.2602 312.9091L 292.5052 327.5343L 283.73 326.3643L 279.635 317.5891L 274.9549 309.9839L 272.0298 297.1138L 272.0298 307.0589L 277.8799 315.8341L 279.05 324.6093L 270.8598 324.6093L 265.0097 315.8341L 259.1596 302.9638L 257.4046 288.3386L 262.8 270.7883L 266.8951 255.578L 266.167 240.6667L 256.5207 221.0624C 256.5207 221.0624 244.6279 211.7022 243.0654 210.5322C 241.5029 209.3622 231.0791 205.8521 231.0791 205.8521L 216.4539 204.6821L 203.5836 205.8521L 190.1284 214.6273L 185.4483 220.4774L 197.7335 212.2873L 207.6787 207.6072C 207.6787 207.6072 215.8688 207.6072 217.6239 207.6072C 219.3789 207.6072 226.399 210.5322 225.229 210.5322C 224.059 210.5322 209.4337 213.4572 209.4337 213.4572L 195.9785 217.5523L 186.0333 220.4774L 180.1832 228.0826L 177.2581 238.0277L 175.5031 251.483L 175.5031 251.483L 175.5031 251.483z"/>
    <path class="OO" d="M524.7978 369.5607L 541.7268 383.3547L 551.1318 402.1647L 560.5368 427.2446L 571.8227 466.1185L 568.6877 447.3085L 559.2828 417.8396L 548.6238 391.5056L 536.0838 373.9497L 524.7978 369.5607z"/>
    <path class="OO" d="M167.4086 248.55L 156.7496 239.145L 146.7177 230.994L 148.5987 240.399L 139.1937 232.8751L 142.3287 237.264L 137.9397 237.264L 134.8047 240.399L 129.7887 240.399L 124.7727 239.145L 118.5027 239.145L 109.7248 231.621L 124.7727 234.756L 126.6537 230.3671L 98.43877 217.2001L 114.1137 221.589L 127.9077 227.859L 136.0587 229.74L 132.9237 220.3351L 120.3837 212.811L 105.3358 207.7951C 105.3358 207.7951 100.3198 203.4061 101.5738 203.4061C 102.8278 203.4061 114.1137 205.914 114.1137 205.914L 123.5187 207.7951L 134.1777 214.0651L 142.3287 215.319L 143.5827 224.724L 148.5987 220.3351L 154.8687 227.859L 159.2576 227.859L 163.0196 229.74L 168.6626 234.756L 166.1546 237.264L 161.1386 236.01L 161.1386 239.145L 176.8136 249.1771L 167.4086 248.55L 167.4086 248.55L 167.4086 248.55z"/>
    <path class="OO" d="M70.22384 223.47C 70.22384 223.47 65.20786 238.518 65.20786 239.772C 65.20786 241.026 54.54888 257.955 54.54888 257.955L 54.54888 267.36L 60.81886 262.9709L 65.83485 270.495L 76.49383 283.0349L 89.03381 297.4559L 101.5738 311.2498L 107.8438 326.9248L 106.5898 341.3458L 110.9788 325.6708L 115.3677 336.3298L 114.1137 319.4008L 99.6928 300.5909L 86.52581 286.1699L 73.35884 272.3759L 60.81886 258.582L 68.96985 247.296L 71.47784 231.621L 70.22384 223.47L 70.22384 223.47z"/>
    <path class="OO" d="M109.7248 297.4559L 94.04979 281.1539L 84.64481 264.225L 84.64481 274.8839L 79.62882 259.8359L 76.49383 237.891L 76.49383 223.47L 76.49383 222.216L 80.88282 206.5411L 75.23983 210.9301L 70.22384 224.724L 72.10484 242.28L 73.35884 247.296L 75.23983 256.074L 82.76381 276.7649L 89.0338 283.0349L 98.43878 299.9639L 94.04979 286.1699L 109.7248 297.4559z"/>
    <path class="OO" d="M72.10484 212.811L 68.34285 199.0171L 73.35884 189.6121L 85.89881 178.3262L 102.8278 165.7862L 120.3837 162.6512L 136.0587 161.3971L 139.1937 156.3812L 128.5347 157.6352L 117.2487 151.9922L 123.5187 159.5162L 115.3677 159.5162L 104.7088 157.6352L 97.18478 151.3652L 96.55779 154.5002L 104.7088 159.5162L 112.2328 161.3971L 103.4548 162.6512L 94.04979 163.9052L 90.91479 159.5162L 89.0338 159.5162L 90.2878 164.5321L 96.55779 165.7862L 93.42279 168.9212L 85.89881 170.8021L 77.74783 167.6671L 75.23983 165.7862L 75.23983 168.9212L 80.88282 173.3101L 85.89881 173.9371L 78.37482 179.5801L 71.47784 188.9851L 63.95386 195.2551L 68.34285 195.2551L 67.08885 201.5251L 67.08885 204.6601L 59.56487 197.1361L 63.95386 206.5411L 71.47784 217.2001L 72.10484 212.811z"/>
    <path class="OO" d="M182.6622 190.9235L 174.2385 198.4605L 172.0217 208.2143L 172.0217 213.9779L 176.4553 213.0912L 177.342 219.2982L 178.2287 225.9485L 174.2385 217.0814L 172.9084 228.1653L 170.6917 232.5988L 170.6917 222.845L 170.6917 215.308L 167.5882 221.515L 167.5882 229.4954L 161.8246 221.9584L 152.0708 208.2143L 140.9869 191.8102L 144.0904 187.3767L 146.3071 179.8396L 150.7407 165.2089L 148.5239 158.5585L 156.0609 156.3418L 157.391 154.125L 157.8344 160.332L 175.1252 154.125L 180.4455 148.8047L 186.2091 154.125L 199.5098 153.2383L 200.3964 147.4747L 211.4803 150.5782L 235.8648 147.4747L 226.111 147.4747L 223.0075 143.0411L 232.7614 143.9279L 246.9487 140.8244L 246.062 138.6076L 259.3627 140.8244L 273.9934 138.6076L 291.2842 140.8244L 280.6437 143.9279L 271.3333 141.7111L 254.0424 143.0411L 248.2788 143.0411L 234.9781 149.6915L 223.0075 152.795L 206.16 153.2383L 197.293 156.3418C 197.293 156.3418 191.5294 156.3418 190.6426 156.3418C 189.7559 156.3418 180.4455 155.0117 180.4455 155.0117L 172.9084 159.4453L 164.0413 162.9921L 156.5043 164.3222L 154.2875 171.8593L 148.5239 186.4899L 146.7505 192.2536L 156.5043 207.3276L 164.0413 219.2982L 168.4749 215.308L 168.4749 205.9976L 173.7951 196.2437L 182.6622 190.9235L 182.6622 190.9235z"/>
    <path class="OO" d="M136.5533 154.5684L 150.9485 135.1202L 150.0025 142.5978L 160.9973 134.944L 172.2296 130.2729L 184.0517 120.1054L 192.8594 110.2329L 190.6426 115.9965L 188.9286 120.4893L 194.2489 116.0559L 203.0566 113.9282L 217.9545 110.411L 230.3961 107.2184L 226.6138 111.5629L 242.5765 109.3462L 258.6521 108.1052L 268.2892 105.4747L 277.0968 107.1294L 280.5546 100.6274L 295.1556 93.9772L 313.452 76.09459L 311.6785 79.19807L 308.1317 84.9617L 317.8855 77.48405L 334.733 63.68065L 345.6685 59.48463L 355.5707 57.6815L 371.0881 58.36037L 373.3049 59.24713L 371.5314 60.57716L 353.7973 62.79396L 358.6147 64.18335L 376.8517 60.57716L 399.0195 61.46385L 406.5565 65.89745L 419.0128 60.131L 425.6208 61.9101L 420.3005 65.01068L 431.3844 65.01068L 434.4879 68.11417L 452.2221 76.09459L 472.173 80.52811L 484.1436 85.84839L 486.3604 94.7155L 499.1604 106.0963L 516.2433 114.9635L 518.9311 121.9957L 505.868 114.2216L 505.2168 116.321L 515.6218 125.7503L 524.4889 137.2776L 536.4595 147.0314L 543.4047 156.6663L 538.5278 160.8625L 521.0311 140.2326L 503.7997 120.43L 498.4497 112.3902L 488.3417 102.5475L 480.3612 95.06981L 477.1984 87.85736L 470.0453 86.14326L 450.2152 86.05423L 460.7072 82.2422L 457.2475 80.88242L 446.9018 79.34456L 431.3844 72.7536L 424.4688 69.29573L 413.0604 69.14734L 403.2174 71.00983L 395.0312 70.62584L 399.3163 66.66534L 396.4188 65.68962L 375.2268 64.80286L 356.1625 68.40904L 341.8267 67.22748L 350.0743 64.09431L 350.4285 62.73453L 339.6099 65.89745L 333.8463 69.44427L 326.6061 75.58975L 314.7226 86.52725L 304.8521 92.88071L 295.2744 103.4341L 298.5264 95.33501L 290.9893 101.5717L 283.3909 106.5672L 279.1949 113.4829L 271.6281 110.9118L 249.6979 114.0448L 226.2595 114.9613L 209.8554 118.0647L 192.8594 121.3167L 187.0958 126.1937L 183.9923 134.6174L 182.6622 136.8342L 182.6622 126.1937L 177.342 132.4006L 162.2105 140.2325L 152.9575 144.7552L 149.4106 150.4298L 144.0904 149.2481L 140.5435 157.2285L 133.8932 160.332L 136.5533 154.5684L 136.5533 154.5684L 136.5533 154.5684L 136.5533 154.5684L 136.5533 154.5684L 136.5533 154.5684z"/>
    <path class="OO" d="M311.518 138.2837L 316.4905 132.4336L 317.3681 128.046L 318.8306 132.4336L 326.1432 128.046L 334.6059 120.1084L 339.5584 116.3058L 340.1834 120.7334L 346.0336 121.3184L 368.5564 120.7334C 368.5564 120.7334 377.9166 122.1959 382.3042 120.7334C 386.6918 119.2708 387.3701 118.2505 393.575 116.1822L 388.831 122.7809L 400.2302 122.1959L 424.1324 124.2434L 439.9453 124.5084C 439.9453 124.5084 440.5127 127.8245 439.6352 127.8245C 438.7577 127.8245 436.2917 127.9041 432.9284 128.2381L 439.2839 131.3554L 445.1928 134.147L 451.3354 141.823L 456.0555 146.9588L 463.3281 155.8339L 467.4232 166.6568L 472.9808 178.6494L 475.9058 183.6219C 475.9058 183.6219 470.9333 179.5269 470.9333 178.6494C 470.9333 177.7719 467.4232 173.3843 467.4232 173.3843L 468.0082 179.2344L 465.0832 176.3093L 463.8422 170.4593L 459.4546 158.174L 454.2604 152.0314L 448.9954 146.4738L 433.4926 133.896L 428.52 131.8486L 421.2074 128.046L 413.8948 128.046L 395.7594 126.5834L 386.9843 127.461L 376.4541 125.8981L 361.8288 125.7059L 346.0336 124.5359C 346.0336 124.5359 342.231 124.5359 342.231 124.5359L 336.1284 126.836L 330.3775 135.4712L 329.8058 129.5485L 327.0207 131.5561L 321.1706 135.3586L 311.518 138.2837L 311.518 138.2837L 311.518 138.2837L 311.518 138.2837L 311.518 138.2837L 311.518 138.2837L 311.518 138.2837L 311.518 138.2837z"/>
    <path class="OO" d="M375.4738 597.754C 376.1354 589.5933 377.6246 587.3652 383.664 584.1684L 374.6741 565.5133C 375.2592 574.3859 374.1543 580.2684 369.1817 578.3183L 375.0318 599.9638L 375.0318 599.9638L 375.0318 599.9638L 375.4738 597.754L 375.4738 597.754z"/>
    <path class="OO" d="M616.071 456.1787L 621.8163 470.321L 632.8649 490.2085L 642.5877 505.6765L 643.9135 500.3732L 647.0071 515.8413L 657.1719 542.3579L 660.2654 567.5488L 657.1719 583.0169L 654.9621 594.5075L 652.7524 583.4588L 648.3329 577.7136L 644.7974 589.646L 643.9135 581.2491L 647.0071 570.2005L 643.9135 545.8935L 648.3329 560.9196L 649.2169 573.2941L 654.9621 578.5974L 657.1719 565.781L 654.0782 545.8935L 642.1457 512.7476L 640.3779 516.2833L 632.8649 497.2796L 617.3968 471.6468L 618.2807 469.4371L 616.071 456.1787L 616.071 456.1787z"/>
    <path class="OO" d="M386.8792 691.7331L 400.6293 722.9835L 391.2542 754.8589L 390.0042 743.6087L 396.8793 722.3585L 383.1291 699.8583L 386.8792 691.7331L 386.8792 691.7331L 386.8792 691.7331L 386.8792 691.7331z"/>
    <path class="OO" d="M513.7554 643.6076L 506.2554 593.6071L 503.7554 556.1067L 485.0052 471.1058L 478.7552 458.6056L 475.0051 459.8557L 496.2552 549.8566L 502.5053 633.6076L 485.0052 739.8587L 500.0053 701.1082L 502.5053 674.858L 513.7554 643.6076L 513.7554 643.6076L 513.7554 643.6076L 513.7554 643.6076z"/>
    <path class="OO" d="M611.2568 514.8563L 580.0064 571.1068L 555.0061 637.3576L 533.8447 736.1087L 550.3093 686.1081L 558.7561 641.1076L 592.5066 556.1067L 613.7568 527.3564L 611.2568 514.8563L 611.2568 514.8563L 611.2568 514.8563z"/>
  </g>
</svg>
